<?xml version="1.0" encoding="UTF-8" standalone="no"?><!-- Generator: Gravit.io --><svg xmlns="http://www.w3.org/2000/svg" xmlns:xlink="http://www.w3.org/1999/xlink" style="isolation:isolate" viewBox="0 0 1000 1000" width="1000pt" height="1000pt"><defs><clipPath id="_clipPath_DV2qbdJtQtZrMZS0vL9UPRRMEeVKP48Y"><rect width="1000" height="1000"/></clipPath></defs><g clip-path="url(#_clipPath_DV2qbdJtQtZrMZS0vL9UPRRMEeVKP48Y)"><rect width="1000" height="1000" style="fill:rgb(0,0,0)"/><circle vector-effect="non-scaling-stroke" cx="500" cy="500" r="430" fill="rgb(255,255,255)"/><path d=" M 227.242 638.924 L 227.242 638.924 L 227.242 638.924 Q 227.242 644.313 230.881 647.952 L 230.881 647.952 L 230.881 647.952 Q 234.521 651.592 240.75 651.592 L 240.75 651.592 L 240.75 651.592 Q 246.908 651.592 250.583 647.987 L 250.583 647.987 L 250.583 647.987 Q 254.257 644.383 254.257 638.924 L 254.257 638.924 L 254.257 638.924 Q 254.257 633.465 250.653 629.756 L 250.653 629.756 L 250.653 629.756 Q 247.048 626.047 240.75 626.047 L 240.75 626.047 L 240.75 626.047 Q 234.381 626.047 230.811 629.791 L 230.811 629.791 L 230.811 629.791 Q 227.242 633.535 227.242 638.924 Z  M 313.746 605.54 L 355.598 605.54 L 355.598 590.003 L 313.746 590.003 L 313.746 564.318 L 362.457 564.318 L 362.457 548.291 L 294.01 548.291 L 294.01 650.192 L 362.667 650.192 L 362.667 634.305 L 313.746 634.305 L 313.746 605.54 L 313.746 605.54 Z  M 371.905 548.291 L 402.699 650.192 L 422.716 650.192 L 453.58 548.291 L 431.884 548.291 L 414.527 614.779 L 412.638 621.707 L 410.888 614.849 L 393.601 548.291 L 371.905 548.291 L 371.905 548.291 Z  M 485.774 605.54 L 527.626 605.54 L 527.626 590.003 L 485.774 590.003 L 485.774 564.318 L 534.485 564.318 L 534.485 548.291 L 466.038 548.291 L 466.038 650.192 L 534.695 650.192 L 534.695 634.305 L 485.774 634.305 L 485.774 605.54 L 485.774 605.54 Z  M 598.523 650.192 L 618.119 650.192 L 618.119 548.291 L 598.383 548.291 L 598.313 613.729 L 570.178 548.291 L 550.372 548.291 L 550.372 650.192 L 570.178 650.192 L 570.178 584.474 L 598.523 650.192 L 598.523 650.192 Z  M 680.408 564.318 L 711.832 564.318 L 711.832 548.291 L 629.667 548.291 L 629.667 564.318 L 660.671 564.318 L 660.671 650.192 L 680.408 650.192 L 680.408 564.318 L 680.408 564.318 Z  M 775.87 623.597 L 775.87 623.597 L 775.87 623.597 Q 775.87 626.326 774.75 628.601 L 774.75 628.601 L 774.75 628.601 Q 773.63 630.876 771.531 632.485 L 771.531 632.485 L 771.531 632.485 Q 769.431 634.095 766.387 635.005 L 766.387 635.005 L 766.387 635.005 Q 763.342 635.915 759.423 635.915 L 759.423 635.915 L 759.423 635.915 Q 755.014 635.915 751.34 634.935 L 751.34 634.935 L 751.34 634.935 Q 747.665 633.955 745.076 631.855 L 745.076 631.855 L 745.076 631.855 Q 742.416 629.756 740.947 626.466 L 740.947 626.466 L 740.947 626.466 Q 739.477 623.177 739.337 618.558 L 739.337 618.558 L 720.02 618.558 L 720.02 618.558 Q 720.02 626.466 723.065 632.345 L 723.065 632.345 L 723.065 632.345 Q 726.109 638.224 731.358 642.563 L 731.358 642.563 L 731.358 642.563 Q 736.887 646.973 744.341 649.247 L 744.341 649.247 L 744.341 649.247 Q 751.794 651.522 759.423 651.522 L 759.423 651.522 L 759.423 651.522 Q 767.192 651.522 773.77 649.667 L 773.77 649.667 L 773.77 649.667 Q 780.349 647.813 785.108 644.173 L 785.108 644.173 L 785.108 644.173 Q 789.867 640.604 792.562 635.39 L 792.562 635.39 L 792.562 635.39 Q 795.256 630.176 795.256 623.457 L 795.256 623.457 L 795.256 623.457 Q 795.256 615.688 791.687 609.74 L 791.687 609.74 L 791.687 609.74 Q 788.118 603.791 782.099 599.312 L 782.099 599.312 L 782.099 599.312 Q 778.11 596.582 773.35 594.482 L 773.35 594.482 L 773.35 594.482 Q 768.591 592.383 763.342 590.913 L 763.342 590.913 L 763.342 590.913 Q 758.443 589.583 754.559 588.044 L 754.559 588.044 L 754.559 588.044 Q 750.675 586.504 747.945 584.614 L 747.945 584.614 L 747.945 584.614 Q 745.216 582.795 743.781 580.485 L 743.781 580.485 L 743.781 580.485 Q 742.346 578.175 742.346 575.306 L 742.346 575.306 L 742.346 575.306 Q 742.346 572.576 743.431 570.232 L 743.431 570.232 L 743.431 570.232 Q 744.516 567.887 746.615 566.138 L 746.615 566.138 L 746.615 566.138 Q 748.715 564.458 751.759 563.513 L 751.759 563.513 L 751.759 563.513 Q 754.804 562.568 758.723 562.568 L 758.723 562.568 L 758.723 562.568 Q 762.992 562.568 766.177 563.723 L 766.177 563.723 L 766.177 563.723 Q 769.361 564.878 771.531 566.908 L 771.531 566.908 L 771.531 566.908 Q 773.63 569.007 774.715 571.877 L 774.715 571.877 L 774.715 571.877 Q 775.8 574.746 775.94 578.175 L 775.94 578.175 L 795.116 578.175 L 795.116 578.175 Q 795.116 571.317 792.457 565.578 L 792.457 565.578 L 792.457 565.578 Q 789.797 559.839 785.038 555.64 L 785.038 555.64 L 785.038 555.64 Q 780.279 551.51 773.665 549.201 L 773.665 549.201 L 773.665 549.201 Q 767.052 546.891 759.073 546.891 L 759.073 546.891 L 759.073 546.891 Q 751.375 546.891 744.796 548.886 L 744.796 548.886 L 744.796 548.886 Q 738.217 550.881 733.388 554.59 L 733.388 554.59 L 733.388 554.59 Q 728.559 558.299 725.829 563.548 L 725.829 563.548 L 725.829 563.548 Q 723.1 568.797 723.1 575.236 L 723.1 575.236 L 723.1 575.236 Q 723.1 580.835 725.164 585.594 L 725.164 585.594 L 725.164 585.594 Q 727.229 590.353 731.288 594.272 L 731.288 594.272 L 731.288 594.272 Q 735.348 598.192 741.751 601.481 L 741.751 601.481 L 741.751 601.481 Q 748.155 604.771 756.624 607.08 L 756.624 607.08 L 756.624 607.08 Q 762.083 608.55 765.757 610.264 L 765.757 610.264 L 765.757 610.264 Q 769.431 611.979 771.741 614.009 L 771.741 614.009 L 771.741 614.009 Q 773.98 616.108 774.925 618.488 L 774.925 618.488 L 774.925 618.488 Q 775.87 620.868 775.87 623.597 Z  M 227.872 418.955 L 271.544 418.955 L 271.544 402.998 L 227.872 402.998 L 227.872 375.283 L 277.003 375.283 L 277.003 359.256 L 208.136 359.256 L 208.136 461.157 L 227.872 461.157 L 227.872 418.955 L 227.872 418.955 Z  M 356.158 359.256 L 297.229 359.256 L 297.229 375.143 L 316.615 375.143 L 316.615 445.34 L 297.229 445.34 L 297.229 461.157 L 356.158 461.157 L 356.158 445.34 L 336.282 445.34 L 336.282 375.143 L 356.158 375.143 L 356.158 359.256 L 356.158 359.256 Z  M 426.495 461.157 L 446.091 461.157 L 446.091 359.256 L 426.355 359.256 L 426.285 424.694 L 398.15 359.256 L 378.344 359.256 L 378.344 461.157 L 398.15 461.157 L 398.15 395.439 L 426.495 461.157 L 426.495 461.157 Z  M 464.498 359.256 L 464.498 461.157 L 491.863 461.157 L 491.863 461.157 Q 498.652 461.157 504.635 459.478 L 504.635 459.478 L 504.635 459.478 Q 510.619 457.798 515.588 454.648 L 515.588 454.648 L 515.588 454.648 Q 519.858 451.989 523.427 448.035 L 523.427 448.035 L 523.427 448.035 Q 526.996 444.08 529.656 439.391 L 529.656 439.391 L 529.656 439.391 Q 532.455 434.142 533.995 427.843 L 533.995 427.843 L 533.995 427.843 Q 535.535 421.545 535.535 414.476 L 535.535 414.476 L 535.535 406.077 L 535.535 406.077 Q 535.535 398.729 533.89 392.22 L 533.89 392.22 L 533.89 392.22 Q 532.245 385.711 529.236 380.322 L 529.236 380.322 L 529.236 380.322 Q 526.646 375.913 523.182 372.169 L 523.182 372.169 L 523.182 372.169 Q 519.718 368.424 515.308 365.835 L 515.308 365.835 L 515.308 365.835 Q 510.269 362.686 504.111 360.971 L 504.111 360.971 L 504.111 360.971 Q 497.952 359.256 490.883 359.256 L 490.883 359.256 L 464.498 359.256 L 464.498 359.256 Z  M 484.304 445.34 L 484.304 375.213 L 490.883 375.213 L 490.883 375.213 Q 494.452 375.213 497.497 376.018 L 497.497 376.018 L 497.497 376.018 Q 500.541 376.823 503.061 378.293 L 503.061 378.293 L 503.061 378.293 Q 506.35 380.252 508.835 383.332 L 508.835 383.332 L 508.835 383.332 Q 511.319 386.411 512.859 390.33 L 512.859 390.33 L 512.859 390.33 Q 514.119 393.62 514.784 397.574 L 514.784 397.574 L 514.784 397.574 Q 515.448 401.528 515.448 405.938 L 515.448 405.938 L 515.448 414.476 L 515.448 414.476 Q 515.448 419.165 514.784 423.189 L 514.784 423.189 L 514.784 423.189 Q 514.119 427.214 512.859 430.503 L 512.859 430.503 L 512.859 430.503 Q 511.319 434.282 509.185 437.117 L 509.185 437.117 L 509.185 437.117 Q 507.05 439.951 504.391 441.771 L 504.391 441.771 L 504.391 441.771 Q 501.801 443.521 498.652 444.43 L 498.652 444.43 L 498.652 444.43 Q 495.502 445.34 491.863 445.34 L 491.863 445.34 L 484.304 445.34 L 484.304 445.34 Z  M 571.928 418.955 L 615.6 418.955 L 615.6 402.998 L 571.928 402.998 L 571.928 375.283 L 621.059 375.283 L 621.059 359.256 L 552.192 359.256 L 552.192 461.157 L 571.928 461.157 L 571.928 418.955 L 571.928 418.955 Z  M 708.053 417.695 L 708.053 417.695 L 708.053 402.858 L 708.053 402.858 Q 708.053 395.929 706.758 389.771 L 706.758 389.771 L 706.758 389.771 Q 705.463 383.612 703.014 378.433 L 703.014 378.433 L 703.014 378.433 Q 700.774 373.883 697.66 370.104 L 697.66 370.104 L 697.66 370.104 Q 694.545 366.325 690.416 363.665 L 690.416 363.665 L 690.416 363.665 Q 686.287 360.866 681.143 359.361 L 681.143 359.361 L 681.143 359.361 Q 675.999 357.856 670.12 357.856 L 670.12 357.856 L 670.12 357.856 Q 664.311 357.856 659.342 359.326 L 659.342 359.326 L 659.342 359.326 Q 654.373 360.796 650.383 363.525 L 650.383 363.525 L 650.383 363.525 Q 646.324 366.325 643.21 370.244 L 643.21 370.244 L 643.21 370.244 Q 640.095 374.163 637.926 378.993 L 637.926 378.993 L 637.926 378.993 Q 635.686 384.102 634.531 390.12 L 634.531 390.12 L 634.531 390.12 Q 633.377 396.139 633.377 402.858 L 633.377 402.858 L 633.377 417.695 L 633.377 417.695 Q 633.377 423.994 634.391 429.663 L 634.391 429.663 L 634.391 429.663 Q 635.406 435.332 637.366 440.161 L 637.366 440.161 L 637.366 440.161 Q 639.535 445.41 642.755 449.574 L 642.755 449.574 L 642.755 449.574 Q 645.974 453.739 650.033 456.678 L 650.033 456.678 L 650.033 456.678 Q 654.163 459.478 659.202 461.017 L 659.202 461.017 L 659.202 461.017 Q 664.241 462.557 670.19 462.557 L 670.19 462.557 L 670.19 462.557 Q 675.789 462.557 680.653 461.192 L 680.653 461.192 L 680.653 461.192 Q 685.517 459.827 689.576 457.378 L 689.576 457.378 L 689.576 457.378 Q 694.055 454.578 697.555 450.379 L 697.555 450.379 L 697.555 450.379 Q 701.054 446.18 703.433 441.141 L 703.433 441.141 L 703.433 441.141 Q 705.673 436.102 706.863 430.188 L 706.863 430.188 L 706.863 430.188 Q 708.053 424.274 708.053 417.695 Z  M 688.106 402.718 L 688.106 402.718 L 688.106 417.695 L 688.106 417.695 Q 688.106 421.475 687.721 424.974 L 687.721 424.974 L 687.721 424.974 Q 687.336 428.473 686.567 431.413 L 686.567 431.413 L 686.567 431.413 Q 685.587 435.192 683.942 438.167 L 683.942 438.167 L 683.942 438.167 Q 682.297 441.141 679.918 443.101 L 679.918 443.101 L 679.918 443.101 Q 678.028 444.71 675.579 445.55 L 675.579 445.55 L 675.579 445.55 Q 673.129 446.39 670.19 446.39 L 670.19 446.39 L 670.19 446.39 Q 667.11 446.39 664.696 445.48 L 664.696 445.48 L 664.696 445.48 Q 662.281 444.57 660.391 442.891 L 660.391 442.891 L 660.391 442.891 Q 658.362 441.001 656.857 437.957 L 656.857 437.957 L 656.857 437.957 Q 655.352 434.912 654.583 431.203 L 654.583 431.203 L 654.583 431.203 Q 653.883 428.263 653.603 424.834 L 653.603 424.834 L 653.603 424.834 Q 653.323 421.405 653.323 417.695 L 653.323 417.695 L 653.323 402.718 L 653.323 402.718 Q 653.323 398.799 653.638 395.229 L 653.638 395.229 L 653.638 395.229 Q 653.953 391.66 654.653 388.651 L 654.653 388.651 L 654.653 388.651 Q 655.562 384.731 657.207 381.792 L 657.207 381.792 L 657.207 381.792 Q 658.852 378.853 661.231 376.893 L 661.231 376.893 L 661.231 376.893 Q 662.981 375.563 665.186 374.863 L 665.186 374.863 L 665.186 374.863 Q 667.39 374.163 670.12 374.163 L 670.12 374.163 L 670.12 374.163 Q 672.989 374.163 675.334 374.933 L 675.334 374.933 L 675.334 374.933 Q 677.678 375.703 679.568 377.103 L 679.568 377.103 L 679.568 377.103 Q 681.947 378.993 683.697 381.967 L 683.697 381.967 L 683.697 381.967 Q 685.447 384.941 686.497 388.721 L 686.497 388.721 L 686.497 388.721 Q 687.336 391.73 687.721 395.264 L 687.721 395.264 L 687.721 395.264 Q 688.106 398.799 688.106 402.718 Z  M 742.626 423.084 L 757.533 423.084 L 776.71 461.157 L 797.776 461.157 L 797.776 460.247 L 775.87 418.185 L 775.87 418.185 Q 780.069 416.296 783.464 413.706 L 783.464 413.706 L 783.464 413.706 Q 786.858 411.117 789.308 407.617 L 789.308 407.617 L 789.308 407.617 Q 791.687 404.188 792.982 399.814 L 792.982 399.814 L 792.982 399.814 Q 794.277 395.439 794.277 389.98 L 794.277 389.98 L 794.277 389.98 Q 794.277 382.422 791.652 376.683 L 791.652 376.683 L 791.652 376.683 Q 789.028 370.944 784.198 367.095 L 784.198 367.095 L 784.198 367.095 Q 779.299 363.245 772.441 361.251 L 772.441 361.251 L 772.441 361.251 Q 765.582 359.256 757.113 359.256 L 757.113 359.256 L 722.96 359.256 L 722.96 461.157 L 742.626 461.157 L 742.626 423.084 L 742.626 423.084 Z  M 757.183 407.127 L 742.626 407.127 L 742.626 375.213 L 757.113 375.213 L 757.113 375.213 Q 761.173 375.213 764.322 376.193 L 764.322 376.193 L 764.322 376.193 Q 767.472 377.173 769.641 378.993 L 769.641 378.993 L 769.641 378.993 Q 772.091 381.022 773.315 384.137 L 773.315 384.137 L 773.315 384.137 Q 774.54 387.251 774.54 391.31 L 774.54 391.31 L 774.54 391.31 Q 774.54 394.67 773.595 397.399 L 773.595 397.399 L 773.595 397.399 Q 772.651 400.129 770.831 402.088 L 770.831 402.088 L 770.831 402.088 Q 768.661 404.538 765.197 405.833 L 765.197 405.833 L 765.197 405.833 Q 761.733 407.127 757.183 407.127 L 757.183 407.127 L 757.183 407.127 Z " fill="rgb(0,0,0)"/></g></svg>